# xmcd
#
# Track frame offsets:
#	150
#	14319
#	27601
#	49210
#	66247
#	77867
#	96433
#	110003
#	127594
#	143946
#	161510
#	172942
#
# Disc length: 2539 seconds
#
# Revision: 1
# Processed by: cddbd v1.5.2PL0 Copyright (c) Steve Scherf et al.
# Submitted via: audiograbber 1.83.01
#
DISCID=a009e90c
DTITLE=Marcus King - El Dorado
DYEAR=2020
DGENRE=Blues
TTITLE0=Young Man's Dream
TTITLE1=The Well
TTITLE2=Wildflowers and Wine
TTITLE3=One Day She's Here
TTITLE4=Sweet Mariona
TTITLE5=Beautiful Stranger
TTITLE6=Break
TTITLE7=Say You Will
TTITLE8=Turn It Up
TTITLE9=Too Much Whiskey
TTITLE10=Love Song
TTITLE11=No Pain
EXTD=
EXTT0=
EXTT1=
EXTT2=
EXTT3=
EXTT4=
EXTT5=
EXTT6=
EXTT7=
EXTT8=
EXTT9=
EXTT10=
EXTT11=
PLAYORDER=
